<svg width="93" height="60" viewBox="0 0 93 60" fill="none" xmlns="http://www.w3.org/2000/svg">
<path d="M53.5099 19.5286C53.8324 19.5251 54.1547 19.5498 54.4728 19.6029C54.7093 19.6441 54.9432 19.6994 55.173 19.7689C55.2232 19.7886 55.3583 19.8562 55.3029 20.016L54.7618 21.5033C54.7165 21.6151 54.685 21.6841 54.4542 21.6136C54.3967 21.5965 54.3115 21.5714 54.0919 21.5247C53.9325 21.4915 53.7232 21.4661 53.5099 21.4661C53.2524 21.4627 52.9961 21.4995 52.7501 21.5755C52.5256 21.6491 52.3216 21.7757 52.1564 21.9447C51.9795 22.122 51.7712 22.3804 51.6603 22.7005C51.4003 23.4504 51.2975 24.247 51.2863 24.2982H53.5509C53.7398 24.2974 53.7996 24.3851 53.7814 24.5257L53.5177 25.9994C53.4777 26.2075 53.289 26.2056 53.2804 26.2054H50.9464L49.3507 35.2357C49.1832 36.1691 48.9742 36.9704 48.7286 37.6156C48.4803 38.2666 48.2204 38.7438 47.8077 39.1995C47.4261 39.622 46.9948 39.9344 46.4991 40.1136C46.0065 40.2914 45.4119 40.3831 44.7599 40.3831C44.4489 40.3831 44.1167 40.3773 43.7228 40.2845C43.439 40.2176 43.2836 40.1696 43.0753 40.0951C42.9865 40.0632 42.9159 39.9528 42.9659 39.8128C43.0153 39.6709 43.4325 38.5228 43.4913 38.3724C43.5625 38.1919 43.741 38.2568 43.7472 38.2591C43.8734 38.3121 43.9616 38.3499 44.13 38.3831C44.2983 38.4168 44.526 38.4456 44.6974 38.4456C45.0054 38.4456 45.2871 38.4077 45.5314 38.3255C45.8272 38.2263 45.9989 38.0558 46.1798 37.8245C46.3665 37.5857 46.5186 37.2567 46.6739 36.8177C46.8316 36.3727 46.9734 35.7846 47.0978 35.0706L48.6866 26.2054H47.1212C46.9326 26.2063 46.8714 26.1179 46.8898 25.9769L47.1544 24.5042C47.1957 24.29 47.3917 24.2982 47.3917 24.2982H49.0001L49.0861 23.8177C49.3263 22.3958 49.8059 21.3153 50.5099 20.6058C51.2189 19.8909 52.2288 19.5287 53.5099 19.5286ZM4.4718 24.0472C5.81891 24.0472 7.12159 24.4383 8.06457 25.013C8.15022 25.0643 8.2332 25.1639 8.18567 25.2952C8.14029 25.4222 7.72196 26.5423 7.67395 26.6693C7.58545 26.904 7.34192 26.7464 7.34192 26.7464C6.52016 26.2925 5.23593 25.9339 4.15832 25.9339C3.18847 25.9339 2.55984 26.4503 2.55969 27.1507V27.1927C2.55969 28.01 3.63318 28.3607 4.87707 28.764L5.09192 28.8343C6.73532 29.3507 8.49504 30.0734 8.49524 32.0579V32.1009C8.49503 34.2471 6.93728 35.5804 4.43176 35.5804C3.20143 35.5804 2.02476 35.3879 0.776487 34.7279C0.542985 34.5927 0.309659 34.4721 0.0801979 34.306C0.0585806 34.2749 -0.0242849 34.2388 0.00695576 34.096L0.026487 34.0247L0.520628 32.6507C0.598699 32.4156 0.777762 32.4939 0.849729 32.5374C0.985711 32.6205 1.08653 32.6945 1.26282 32.7972C2.72225 33.7196 4.06974 33.7269 4.49231 33.7269C5.57876 33.7267 6.25696 33.1472 6.25696 32.3704V32.3285C6.25683 31.4845 5.215 31.1632 4.01184 30.7933L3.74524 30.7103C2.09277 30.2388 0.323362 29.5557 0.323362 27.4632V27.4212C0.323362 25.4364 1.92711 24.0482 4.2218 24.0482L4.4718 24.0472ZM41.1554 24.0443C42.5023 24.0443 43.8043 24.4345 44.7472 25.0091C44.8325 25.0603 44.9172 25.1599 44.8693 25.2913C44.8289 25.417 44.4093 26.5375 44.3614 26.6654C44.2744 26.8952 44.0394 26.7498 44.0294 26.7435C43.2031 26.2895 41.9226 25.93 40.8448 25.93C39.8751 25.9302 39.2462 26.4474 39.2462 27.1478V27.1888C39.2462 28.0061 40.3198 28.3578 41.5636 28.7611L41.7784 28.8304C43.4265 29.3468 45.1827 30.0702 45.1827 32.055V32.097C45.1827 34.2433 43.6247 35.5773 41.1193 35.5775C39.8888 35.5775 38.7114 35.3841 37.463 34.724C37.2296 34.5889 36.9961 34.4681 36.7677 34.3021C36.7453 34.2711 36.6626 34.2354 36.6935 34.0931L36.7091 34.0208L37.2032 32.6468C37.2756 32.4226 37.487 32.5048 37.5323 32.5335C37.6662 32.6197 37.769 32.6914 37.9454 32.7943C39.4004 33.7166 40.7515 33.723 41.1749 33.723C42.2612 33.7228 42.9394 33.1441 42.9396 32.3675V32.3245C42.9392 31.4808 41.902 31.1593 40.6945 30.7894L40.4288 30.7064C38.7764 30.2349 37.0072 29.5526 37.007 27.4603V27.4173C37.007 25.4325 38.6098 24.0453 40.9044 24.0452L41.1554 24.0443ZM59.0538 24.0833C59.907 24.0833 60.6623 24.2339 61.2999 24.5326C61.9419 24.8289 62.4804 25.2424 62.9073 25.7542C63.2805 26.2021 63.5715 26.7257 63.7765 27.3158L63.8546 27.5726C64.0585 28.2641 64.1622 29.0233 64.1622 29.8226C64.1622 30.6263 64.0585 31.3811 63.8546 32.0726C63.648 32.7685 63.3285 33.3791 62.9025 33.891C62.4759 34.4028 61.9326 34.8119 61.295 35.1029C60.6574 35.3939 59.9025 35.5423 59.0538 35.5423C58.2052 35.5423 57.4508 35.3938 56.8087 35.1029C56.1712 34.811 55.6283 34.4028 55.2013 33.891C54.7748 33.3791 54.4544 32.7685 54.2491 32.0726C54.0448 31.3811 53.9415 30.6263 53.9415 29.8226C53.9415 29.0188 54.0448 28.2641 54.2491 27.5726C54.4557 26.8766 54.7756 26.2661 55.2013 25.7542C55.6279 25.2423 56.1711 24.8307 56.8087 24.5326C57.4508 24.2349 58.2008 24.0834 59.0538 24.0833ZM30.7657 24.0755C31.463 24.0744 32.1533 24.2148 32.795 24.4876C33.2396 24.6762 33.6847 25.0216 34.1427 25.5111C34.4301 25.8209 34.8711 26.4993 35.0489 27.1683L35.0538 27.1702C35.5086 28.7643 35.2734 30.1436 35.2657 30.2191C35.2463 30.4012 35.0597 30.4027 35.0597 30.4027L27.965 30.3978C28.0054 31.4755 28.2663 32.2343 28.7872 32.7552C29.2992 33.2639 30.1165 33.5884 31.212 33.5902C32.8955 33.5946 33.6138 33.2543 34.1212 33.0648C34.1212 33.0648 34.3174 32.9953 34.3888 33.1888L34.8517 34.4867C34.9444 34.705 34.8692 34.7806 34.7911 34.8245C34.351 35.0715 33.2731 35.5278 31.2257 35.5345C30.2289 35.5376 29.3664 35.3946 28.6525 35.1185C27.9341 34.8401 27.3372 34.4442 26.8702 33.9368C26.4078 33.4339 26.0614 32.8276 25.8468 32.1361C25.6327 31.4491 25.5246 30.6905 25.5245 29.8734C25.5245 29.0741 25.629 28.3106 25.8351 27.6146C26.0416 26.9096 26.3663 26.2937 26.796 25.7728C27.2271 25.2521 27.775 24.8358 28.4259 24.5296C29.077 24.2256 29.8811 24.0755 30.7657 24.0755ZM87.4816 24.0755C88.1789 24.0743 88.8692 24.2148 89.5109 24.4876C89.9554 24.6762 90.4005 25.0216 90.8585 25.5111C91.1459 25.8209 91.5875 26.4992 91.7657 27.1683L91.7745 27.1702C92.2289 28.7643 91.9941 30.1436 91.9865 30.2191C91.9675 30.3972 91.7884 30.4025 91.7804 30.4027L84.6847 30.3978C84.7251 31.4755 84.9861 32.2343 85.507 32.7552C86.0189 33.2639 86.8316 33.5884 87.9318 33.5902C89.6157 33.5947 90.3345 33.2543 90.8419 33.0648C90.8514 33.0615 91.0394 33.0001 91.1085 33.1888L91.5704 34.4867C91.6628 34.705 91.5893 34.7805 91.5109 34.8245C91.0708 35.0715 89.993 35.5277 87.9454 35.5345C86.9531 35.5376 86.0862 35.3946 85.3722 35.1185C84.6537 34.8401 84.056 34.4443 83.589 33.9368C83.1221 33.434 82.7757 32.8275 82.5607 32.1361C82.3479 31.4492 82.2404 30.6904 82.2404 29.8734C82.2404 29.0741 82.3444 28.3106 82.5509 27.6146C82.7575 26.9096 83.0812 26.2937 83.5118 25.7728C83.9429 25.2521 84.4908 24.8358 85.1417 24.5296C85.7929 24.2256 86.5969 24.0755 87.4816 24.0755ZM78.3741 24.054C78.9669 24.054 79.4929 24.0904 79.9464 24.1595C80.4314 24.2327 81.0717 24.4061 81.3429 24.512C81.3928 24.5314 81.5291 24.5991 81.4738 24.7581C81.2766 25.315 81.1408 25.6794 80.9572 26.1869C80.8785 26.4024 80.714 26.3314 80.714 26.3314C80.0226 26.115 79.3622 26.014 78.5001 26.014C77.4675 26.0141 76.6862 26.3649 76.1788 27.0384C75.6648 27.7209 75.3783 28.6099 75.3751 29.7952C75.3706 31.0975 75.6943 32.0583 76.2736 32.6556C76.8484 33.2524 77.6567 33.554 78.6671 33.554C79.0755 33.554 79.4633 33.5268 79.8116 33.472C80.1574 33.4181 80.4822 33.31 80.7863 33.1937C80.7892 33.1926 80.9394 33.1362 81.0226 33.2572L81.0548 33.3206L81.5714 34.7396C81.637 34.9156 81.4865 34.9886 81.4865 34.9886C80.6961 35.3016 79.5958 35.5179 78.5226 35.5179C76.7084 35.5179 75.3168 34.997 74.3917 33.9642C73.4667 32.9359 72.9991 31.5306 72.9991 29.7972C72.9992 28.9935 73.1142 28.2348 73.3409 27.5433C73.57 26.8473 73.9104 26.2359 74.3595 25.724C74.8085 25.212 75.375 24.801 76.0441 24.5033C76.7131 24.2051 77.4941 24.0541 78.3741 24.054ZM14.5548 24.0599C15.9691 24.06 17.0604 24.3874 17.8058 25.0384C18.5539 25.6896 18.9327 26.7454 18.9327 28.1644L18.9366 34.6302C18.9366 34.6302 18.9503 34.818 18.7755 34.8626C18.7755 34.8626 18.5127 34.9333 18.2765 34.9876C17.6849 35.1158 17.0907 35.2314 16.4943 35.3343C15.7938 35.4524 15.0703 35.514 14.3429 35.514C13.6514 35.514 13.0227 35.4496 12.4659 35.3226C11.9048 35.1969 11.4183 34.985 11.0245 34.6986C10.6287 34.4116 10.31 34.0302 10.0988 33.5892C9.8833 33.1448 9.77459 32.6014 9.77453 31.973C9.77453 31.3534 9.90252 30.8052 10.1534 30.3382C10.4021 29.8753 10.754 29.4754 11.1818 29.1702C11.6083 28.8631 12.107 28.6328 12.6593 28.4837C13.2071 28.3355 13.7953 28.2601 14.4015 28.2601C14.8459 28.2601 15.2186 28.2703 15.506 28.2913L15.5128 28.3079C15.5128 28.3079 16.0746 28.3586 16.6808 28.4466V28.1468C16.6808 27.2039 16.4834 26.7551 16.0968 26.4583C15.7017 26.1553 15.109 26.0004 14.3458 26.0003C14.3458 26.0003 12.6215 25.9783 11.2609 26.7191C11.2007 26.7547 11.149 26.7759 11.1447 26.7777C11.1447 26.7777 10.9737 26.8371 10.9113 26.6624L10.4083 25.3148C10.3324 25.1198 10.4728 25.0335 10.4728 25.0335C11.1043 24.5393 12.6244 24.2406 12.6544 24.2347C13.1663 24.1319 14.0249 24.0599 14.5548 24.0599ZM23.3234 19.7572C23.4417 19.7574 23.5255 19.853 23.5255 19.971V35.0902C23.5253 35.2084 23.4416 35.3048 23.3234 35.305H21.4445C21.3257 35.3049 21.2415 35.2085 21.2413 35.0902V19.971C21.2413 19.853 21.3255 19.7572 21.4445 19.7572H23.3234ZM71.2443 24.1839C71.7063 24.2126 72.3081 24.3392 72.4298 24.3851C72.4538 24.3945 72.4758 24.4091 72.4943 24.4271C72.5127 24.4451 72.5273 24.4668 72.5372 24.4906C72.5471 24.5143 72.552 24.54 72.5519 24.5658C72.5518 24.5786 72.5506 24.5913 72.548 24.6038L72.5411 24.6107C72.4738 24.8037 72.1288 25.7728 72.007 26.097C71.9607 26.22 71.8847 26.3037 71.7482 26.2884C71.7441 26.2875 71.3394 26.1937 70.9708 26.1937C70.6491 26.1937 70.3289 26.2387 70.0197 26.3275C69.6898 26.4298 69.3892 26.61 69.1437 26.8529C68.8864 27.1043 68.6771 27.4552 68.5236 27.8949C68.3678 28.3393 68.2902 29.0441 68.2902 29.7533V35.0531C68.29 35.1099 68.2668 35.1642 68.2267 35.2044C68.1865 35.2446 68.1322 35.2678 68.0753 35.2679H66.2159C66.1591 35.2677 66.1048 35.2446 66.0646 35.2044C66.0244 35.1642 66.0013 35.1099 66.0011 35.0531V24.4994C66.0013 24.381 66.0867 24.2855 66.2042 24.2855H68.0187C68.1378 24.2857 68.2216 24.3811 68.2218 24.4994L68.2228 25.3617C68.4923 24.9935 68.978 24.6749 69.4171 24.4769C69.8616 24.2776 70.3555 24.1283 71.2443 24.1839ZM14.755 30.0531C13.3279 30.0353 12.7099 30.5522 12.6984 30.5648C12.2718 30.8656 12.0655 31.3152 12.0655 31.9349C12.0656 32.33 12.1369 32.6389 12.2775 32.8558C12.3694 32.9998 12.4088 33.054 12.6866 33.2757L12.6905 33.2777C12.6861 33.2763 13.3234 33.7783 14.7648 33.6917C15.7749 33.6309 16.6695 33.4386 16.6779 33.4368H16.6769V30.2171C16.0407 30.1195 15.3986 30.0646 14.755 30.0531ZM59.0587 26.0052C58.1247 26.0052 57.4631 26.324 57.0284 26.9886C56.5911 27.6577 56.3693 28.6102 56.3693 29.8226C56.3693 31.0348 56.5899 31.9957 57.0284 32.6693C57.464 33.3366 58.1292 33.6615 59.0587 33.6615C59.9882 33.6614 60.6559 33.3344 61.0978 32.6654C61.4853 32.072 61.7066 31.2649 61.756 30.2601L61.7667 29.8226C61.7667 28.6101 61.5432 27.6577 61.0978 26.9886C60.6577 26.3272 59.9927 26.0052 59.0587 26.0052ZM30.5988 25.9515C29.6695 25.9516 29.009 26.3155 28.5743 26.9798C28.2848 27.4153 28.0993 27.9764 27.9991 28.6497H27.9767L27.9991 28.6507V28.6497L33.0509 28.6507C33.0028 27.9996 32.8755 27.4176 32.5841 26.9798C32.144 26.317 31.5283 25.9515 30.5988 25.9515ZM87.3156 25.9515C86.3861 25.9515 85.7244 26.3153 85.2902 26.9798C85.0002 27.4153 84.8151 27.9764 84.715 28.6497H84.6925L84.715 28.6507V28.6497L89.7667 28.6507C89.7191 27.9996 89.5918 27.4177 89.2999 26.9798C88.8599 26.3171 88.2449 25.9516 87.3156 25.9515Z" fill="#333333"/>
</svg>
